<svg width="240" height="512" viewBox="0 0 240 512" fill="none" xmlns="http://www.w3.org/2000/svg">
<path d="M142.936 0H97.3992C72.1615 0 48.1231 10.052 29.7142 28.3039C11.1632 46.6958 0.947176 70.8983 0.947176 96.427L0.61215 196.791C0.598149 200.935 3.94549 204.304 8.08791 204.317H8.11293C12.2444 204.317 15.5997 200.975 15.6137 196.841L15.8067 139.134H152.914C162.649 139.277 162.644 123.989 152.914 124.133H127.313V75.5518C127.313 71.4084 123.956 68.051 119.812 68.051C115.669 68.051 112.312 71.4084 112.312 75.5518V124.133H15.8567L15.9487 96.452C15.9487 52.3014 53.2486 15.0016 97.3982 15.0016H112.311V39.7351C112.311 43.8785 115.668 47.2359 119.811 47.2359C123.955 47.2359 127.312 43.8785 127.312 39.7351V15.0016H142.935C187.847 15.0016 224.384 51.5403 224.384 96.452V124.133H188.73C178.995 123.99 179 139.278 188.73 139.134H224.384V271.086C224.384 314.208 190.588 349.553 148.165 351.904V325.534C148.165 310.369 135.827 298.031 120.663 298.031C105.498 298.031 93.1597 310.369 93.1597 325.534V351.908C50.1893 349.585 15.9477 314.227 15.9477 271.086V233.656C15.9477 229.513 12.5904 226.155 8.44696 226.155C4.30353 226.155 0.946184 229.513 0.946184 233.656V271.086C0.946184 322.497 41.9124 364.591 93.1597 366.931V418.651L68.1031 393.595C57.379 382.871 39.9302 382.872 29.2061 393.596C18.484 404.319 18.484 421.768 29.2061 432.492L100.713 503.999C110.952 514.667 129.372 514.667 139.611 503.998L167.488 476.119C170.418 473.19 170.418 468.44 167.487 465.512C164.559 462.584 159.81 462.583 156.88 465.513L129.002 493.391C124.351 498.241 115.974 498.241 111.323 493.391L39.8152 421.885C34.9407 417.01 34.9407 409.077 39.8152 404.204C44.4677 399.353 52.8426 399.353 57.495 404.204L95.2479 441.958C99.7734 446.724 108.288 443.113 108.161 436.546V325.535C108.161 318.641 113.769 313.033 120.663 313.033C127.556 313.033 133.164 318.641 133.164 325.535V435.546C133.037 442.114 141.551 445.724 146.076 440.958L182.83 404.204C187.703 399.328 195.636 399.329 200.51 404.203C205.384 409.077 205.384 417.01 200.51 421.884L181.633 440.761C178.704 443.691 178.704 448.439 181.633 451.369C184.563 454.297 189.311 454.297 192.241 451.369L211.119 432.49C221.841 421.767 221.841 404.318 211.119 393.594C200.395 382.87 182.946 382.87 172.222 393.594L148.165 417.65V366.932C172.126 365.836 194.448 356 211.435 338.952C229.459 320.862 239.386 296.76 239.386 271.086V96.452C239.387 43.2685 196.119 0 142.936 0V0Z" fill="white"/>
</svg>
